<svg xmlns="http://www.w3.org/2000/svg" width="241.58" height="44.173" viewBox="0 0 241.58 44.173"><path d="M24.067,47.153A17.684,17.684,0,0,0,27.5,51.571a23.04,23.04,0,0,1-9.693,1.981C7.489,53.552,0,47.853,0,38.766c0-9.155,7.871-14.853,17.806-14.853a21.354,21.354,0,0,1,9.14,1.9,17.648,17.648,0,0,0-3.221,4.56,16.384,16.384,0,0,0-5.234-.826c-6.11,0-10.851,3.271-10.851,9.222,0,5.631,4.59,9.222,11.163,9.222a16.457,16.457,0,0,0,5.264-.835ZM44.823,23.913c10.167,0,17.5,6.019,17.5,14.853,0,8.767-7.338,14.786-17.5,14.786-10.086,0-17.424-6.019-17.424-14.786C27.4,29.932,34.737,23.913,44.823,23.913Zm0,5.437c-5.657,0-9.784,3.65-9.784,9.416,0,5.7,4.127,9.349,9.784,9.349,5.808,0,9.865-3.65,9.865-9.349C54.688,33,50.631,29.35,44.823,29.35ZM67.139,52.911V24.553H74.7V52.911Zm-1-37.065c.163-2.093,2.237-3.72,4.741-3.72s4.578,1.627,4.741,3.72c-.01,2.2-2.116,3.988-4.741,4.029C68.258,19.834,66.153,18.044,66.143,15.846ZM81.3,26.349a53.031,53.031,0,0,1,15.511-2.436c8.636,0,14.143,2.748,14.143,10.756V52.911h-7.489V35.242c0-4.1-3.06-5.572-7.257-5.572a30.833,30.833,0,0,0-7.338.835V52.911H81.3V26.349ZM117.287,9.38h7.57V25.321a21.613,21.613,0,0,1,7.71-1.408c9.784,0,17.122,5.252,17.122,14.339,0,9.155-7.257,15.3-19.789,15.3A44.082,44.082,0,0,1,117.287,51.7V9.38Zm7.57,38.161a21.97,21.97,0,0,0,5.274.573c6.945,0,11.918-3.2,11.918-9.736,0-5.5-4.66-8.767-10.388-8.767a16.48,16.48,0,0,0-6.8,1.34v16.59ZM171.542,33.9c0-3.077-2.748-4.485-6.492-4.485a21.985,21.985,0,0,0-9.784,2.3v-5.5a26.113,26.113,0,0,1,11-2.3c7.419,0,12.683,2.563,12.683,9.669V52.338a59.976,59.976,0,0,1-11.606,1.155c-8.788,0-15.209-2.242-15.209-8.649,0-5.757,5.878-8.573,15.662-8.573h3.744Zm0,6.592h-3.211c-5.275,0-8.707,1.281-8.707,4.164,0,2.942,3.211,4.1,7.791,4.1a34.015,34.015,0,0,0,4.127-.32Zm12.914,4.737a19.969,19.969,0,0,0,10.317,3.2c3.362,0,5.576-.961,5.576-3.2,0-2.31-1.983-3.136-6.341-4.1-7.026-1.349-10.016-3.717-10.016-8.64,0-5.766,5.2-8.581,12.079-8.581a20.152,20.152,0,0,1,9.7,2.175v5.825A17.657,17.657,0,0,0,196.3,29.03c-3.292,0-5.043,1.349-5.043,3.2s1.449,2.816,5.345,3.717c7.721,1.408,11.083,3.836,11.083,8.961,0,5.951-5.425,8.64-12.763,8.64a22.894,22.894,0,0,1-10.469-2.3V45.231Zm33.59-5.058V40.3c.453,5.058,5.657,7.814,10.921,7.814a22.007,22.007,0,0,0,11.384-2.757V50.93c-3.05,1.8-7.559,2.622-11.918,2.622-10.539,0-17.726-5.631-17.726-14.592,0-9.028,7.026-15.047,16.357-15.047,9.854,0,14.515,5.311,14.515,13.058v3.2H218.046Zm16.427-4.1c-.151-4.417-2.748-6.853-7.64-6.853a8.364,8.364,0,0,0-8.556,6.853Z" transform="translate(0 -9.38)" fill="#ababab"/></svg>