<svg xmlns="http://www.w3.org/2000/svg" xmlns:xlink="http://www.w3.org/1999/xlink" width="241.58" height="44.097" viewBox="0 0 241.58 44.097"><defs><linearGradient id="a" x1="0.972" y1="0.028" x2="0" y2="1" gradientUnits="objectBoundingBox"><stop offset="0" stop-color="#8f8f8f"/><stop offset="1" stop-color="#0e505a"/></linearGradient></defs><g transform="translate(0.009 -0.543)"><path d="M62.247,1.554c2.058,27.88-15.863,41.058-31.929,42.463-14.937,1.306-29-7.872-30.23-21.973C-.93,10.394,6.271,5.434,11.928,4.94c5.819-.51,10.708,3.5,11.132,8.361.409,4.671-2.506,6.8-4.533,6.974a3.4,3.4,0,0,1-3.8-2.922c-.156-1.8.526-2.04.359-3.948-.3-3.4-3.258-3.791-4.879-3.651-1.962.172-5.522,2.462-5.022,8.166.5,5.753,6.019,10.3,13.25,9.667,7.8-.682,13.237-6.758,13.646-15.28A3.1,3.1,0,0,1,32.358,11l0-.01a3.671,3.671,0,0,1,.294-.513,6.936,6.936,0,0,1,.656-.828c0-.008,0-.008.008-.008.2-.226.442-.471.716-.734,3.409-3.216,15.686-10.8,27.3-8.4a1.163,1.163,0,0,1,.916,1.049" transform="translate(0 0.5)" fill="url(#a)"/><g transform="translate(77.636 6.296)"><rect width="4.769" height="22.574" rx="0.071" transform="translate(0.498 9.105)" fill="#ababab"/><path d="M62.781.921v3.51a.153.153,0,0,1-.153.149H53.589a.153.153,0,0,0-.155.149v26.6a.153.153,0,0,1-.157.149H48.617a.153.153,0,0,1-.155-.146V4.729a.153.153,0,0,0-.155-.149H38.453a.153.153,0,0,1-.153-.149V.921a.153.153,0,0,1,.153-.149h24.16a.162.162,0,0,1,.118.039.146.146,0,0,1,.05.109ZM39.7,17.072l.048.009V31.325a.153.153,0,0,1-.153.149H35.24a.153.153,0,0,1-.157-.149V20.4c0-.463.009-.929.009-1.386,0-.236,0-.463-.009-.693a15.1,15.1,0,0,0-.131-1.984c-.328-2.373-1.3-4.1-4.738-4.05a6.425,6.425,0,0,0-2.848.769,7.279,7.279,0,0,0-2.789,2.572,17.718,17.718,0,0,1,.155,2.29v.024c0,.127.009.254.009.372V31.638a.153.153,0,0,1-.155.149H20.34a.153.153,0,0,1-.155-.149V20.387c0-2.48.131-5.064-1.1-6.663-.743-.959-1.8-1.41-3.86-1.41a7.092,7.092,0,0,0-2.78.7,7.406,7.406,0,0,0-1.6,1.01,3.139,3.139,0,0,0-1.2,2.3v15.01a.153.153,0,0,1-.153.149H5.164a.153.153,0,0,1-.153-.149V9.189a.153.153,0,0,1,.153-.149H6.989a1.652,1.652,0,0,1,1.6,1.141l.275.9a.146.146,0,0,0,.1.135.167.167,0,0,0,.168-.031A10.8,10.8,0,0,1,16.5,8.494c2.78,0,4.579.837,5.748,2.144l-.122-.157a7.494,7.494,0,0,1,.931,1.313.16.16,0,0,0,.262.026C25.073,9.709,28.546,8.5,31.341,8.5c6.368,0,8.37,4.332,8.37,8.567l-.017.009Zm71.185,14.439h-4.729a.157.157,0,0,1-.125-.061c-1.783-2.365-3.108-4.651-3.693-5.372l-.107-.131c-.973-1.206-2.972-3.746-5.717-4.224a.16.16,0,0,0-.135.044l-2.022,2.085a.144.144,0,0,0-.044.1v7.369a.153.153,0,0,1-.155.146h-4.4a.153.153,0,0,1-.153-.146V.417a.153.153,0,0,1,.153-.149h4.4a.15.15,0,0,1,.155.149v17.8a.146.146,0,0,0,.1.131.163.163,0,0,0,.166-.026l9.682-9.706a.16.16,0,0,1,.109-.044h5.193a.154.154,0,0,1,.138.092.144.144,0,0,1-.028.157l-9.889,9.856a.144.144,0,0,0-.039.129.149.149,0,0,0,.083.1,16.747,16.747,0,0,1,5.748,4.9l.1.129c.787.97,3.409,4.78,5.348,7.354a.142.142,0,0,1,0,.146.157.157,0,0,1-.131.074Z" transform="translate(5.805 0.211)" fill="#ababab"/><ellipse cx="2.883" cy="2.754" rx="2.883" ry="2.754" transform="translate(0 0)" fill="#ababab"/><path d="M42.546,3.8c-6.878,0-11.382,4.377-11.382,11.845,0,7.5,4.524,11.847,11.382,11.847s11.377-4.353,11.377-11.845C53.923,8.194,49.384,3.8,42.546,3.8Zm0,19.982c-4.646,0-6.875-3.044-6.875-8.359,0-5.284,2.229-7.916,6.875-7.916s6.86,2.85,6.86,8.134-2.229,8.141-6.86,8.141Zm50.987.3a6.784,6.784,0,0,1-6.39-2.671A7.926,7.926,0,0,1,85.7,17.788a.144.144,0,0,1,.028-.109.157.157,0,0,1,.1-.059l12.562-1.694A4.318,4.318,0,0,0,101.975,9.6,10.571,10.571,0,0,0,96.24,4.4,11.608,11.608,0,0,0,85.8,5.8a11.636,11.636,0,0,0-4.55,9.052c-.022.372-.031.743-.031,1.115a13.037,13.037,0,0,0,.2,2.295c.861,4.983,4.522,9.559,10.654,9.581,6.941.022,10.219-4.008,10.781-7.028a.144.144,0,0,0-.044-.125.16.16,0,0,0-.131-.044l-4.327.64a.166.166,0,0,0-.109.074A6.348,6.348,0,0,1,93.532,24.08ZM87.042,9.953a6.91,6.91,0,0,1,4.913-2.522,5.882,5.882,0,0,1,4.93,1.421,6.819,6.819,0,0,1,1.254,1.591,1.56,1.56,0,0,1-1.169,2.279L85.527,14.257a.16.16,0,0,1-.131-.039.144.144,0,0,1-.044-.12A7.632,7.632,0,0,1,87.042,9.953Zm40.086,3.414V27.2a.153.153,0,0,1-.153.149H122.66a.153.153,0,0,1-.157-.149V15.7a36.7,36.7,0,0,0-.109-3.75,4.61,4.61,0,0,0-1.574-3.307,5.208,5.208,0,0,0-3.484-.892,9.84,9.84,0,0,0-6.08,3.313l-.079.09.079-.033V27.194a.153.153,0,0,1-.155.149h-4.327a.153.153,0,0,1-.157-.149V4.625a.153.153,0,0,1,.155-.149h3.551a.152.152,0,0,1,.157.149V6.837a.142.142,0,0,0,.1.131.155.155,0,0,0,.164-.031,10.5,10.5,0,0,1,7.5-3.049c2.4,0,8.877.1,8.877,9.478Z" transform="translate(36.808 4.333)" fill="#ababab"/></g></g></svg>