<svg xmlns="http://www.w3.org/2000/svg" xmlns:xlink="http://www.w3.org/1999/xlink" width="238" height="44.1" viewBox="0 0 238 44.1"><defs><clipPath id="a"><rect width="238" height="44.1" fill="#fff"/></clipPath></defs><g clip-path="url(#a)"><path d="M4.85,0h228a4.85,4.85,0,0,1,4.85,4.85V38.985a4.85,4.85,0,0,1-4.85,4.85H4.85A4.85,4.85,0,0,1,0,38.985V4.85A4.85,4.85,0,0,1,4.85,0Z" transform="translate(0.15 0.132)" fill="#ababab" stroke="#ababab" stroke-width="0.3"/><rect width="29.5" height="26.019" rx="9.75" transform="translate(10.25 9.041)" fill="#0e505a" stroke="#0e505a" stroke-width="0.5"/><path d="M25.119,16.9a12.68,12.68,0,0,0,7.367,1.913c-.213,11.594-1.839,10.049-7.367,13.3-5.528-3.251-7.144-1.706-7.357-13.3A12.668,12.668,0,0,0,25.119,16.9Z" transform="translate(0 -1.994)" fill="none" stroke="#ababab" stroke-linecap="round" stroke-linejoin="round" stroke-miterlimit="10" stroke-width="2.036"/><path d="M55.8,28.375V26.708h-7.42v1.667h2.646v6.952h2.128V28.375Zm3.3,3.791h1.526l1.708,3.161H64.7l-1.918-3.383a2.463,2.463,0,0,0,1.778-2.482,2.689,2.689,0,0,0-2.954-2.754H56.974v8.619H59.1Zm0-1.581V28.338h2.24c.63,0,1.022.3,1.022.852v.543c0,.556-.392.852-1.022.852Zm6.778-3.877V31.8c0,2.544,1.036,3.68,3.836,3.68s3.836-1.136,3.836-3.68V26.708H71.48v5.285c0,1.21-.5,1.815-1.764,1.815s-1.764-.605-1.764-1.815V26.708Zm12.661,8.767c2.436,0,3.808-1.148,3.808-2.8,0-1.482-.966-2.272-2.968-2.556l-.966-.136c-.812-.111-1.162-.333-1.162-.926,0-.519.462-.84,1.414-.84a2.708,2.708,0,0,1,2.1.815l1.414-1.259a4.655,4.655,0,0,0-3.388-1.21c-2.3,0-3.668,1.074-3.668,2.618,0,1.445.938,2.334,3,2.568l.966.111c.91.111,1.134.457,1.134.926,0,.63-.5,1.037-1.54,1.037a3.379,3.379,0,0,1-2.45-.988l-1.4,1.247A5.058,5.058,0,0,0,78.541,35.475Zm11.684-7.1V26.708H82.8v1.667h2.646v6.952h2.128V28.375Zm8.18,6.952,1.232-4.668.49-1.889h.042l.476,1.889,1.232,4.668H104.3l2.268-8.619h-2.016l-.938,4.137-.518,2.4h-.042l-.6-2.4-1.092-4.137H99.035l-1.078,4.137-.616,2.4H97.3l-.518-2.4-.924-4.137h-2.1l2.212,8.619Zm17.2,0-3.178-8.619h-2.632l-3.22,8.619h2.156l.7-2.05h3.262l.7,2.05Zm-3.43-3.643h-2.24l1.078-3.272h.07Zm10.354,3.643V33.66H118.8V26.708h-2.128v8.619Zm7.144,0V33.66h-3.724V26.708h-2.128v8.619Zm7.942,0V33.66H133.09V31.8h3.878V30.141H133.09V28.375h4.522V26.708h-6.65v8.619Zm8.293-6.952V26.708h-7.42v1.667h2.646v6.952h2.128V28.375Z" transform="translate(0 -3.134)" fill="#0e505a"/><text transform="translate(48.5 16.733)" fill="#0e505a" stroke="#0e505a" stroke-width="1" font-size="10" font-family="SegoeUI, Segoe UI" letter-spacing="0.15em"><tspan x="0" y="0">EARN LOYALTY WITH</tspan></text></g></svg>