<svg xmlns="http://www.w3.org/2000/svg" xmlns:xlink="http://www.w3.org/1999/xlink" width="241.077" height="45.096" viewBox="0 0 241.077 45.096"><defs><linearGradient id="a" x1="0.285" x2="-0.746" y2="2.416" gradientUnits="objectBoundingBox"><stop offset="0" stop-color="#0e505a"/><stop offset="1" stop-color="#8f8f8f"/></linearGradient></defs><g transform="translate(-119.5 -119.5)"><g transform="translate(186.162 131.006)"><path d="M1228.032,191.071c-1.249-.827-2.627-1.415-3.932-2.15a16.819,16.819,0,0,1-2.48-1.507,2.507,2.507,0,0,1,.312-3.932c1.874-1.249,4.979-.551,5.31,2a.1.1,0,0,0,.11.092h2.829a.1.1,0,0,0,.11-.129,5.585,5.585,0,0,0-2.076-4.171,6.571,6.571,0,0,0-4.005-1.378c-7.478,0-8.158,7.919-4.134,10.418.459.294,4.41,2.278,5.806,3.142a2.872,2.872,0,0,1,1.231,3.693,3.619,3.619,0,0,1-3.417,1.837,3.38,3.38,0,0,1-3.2-2.26,4.019,4.019,0,0,1-.11-.9.119.119,0,0,0-.11-.11h-3.068a.118.118,0,0,0-.11.11c0,2.223.551,3.454,2.058,4.575a7.375,7.375,0,0,0,4.557,1.507c4.189,0,6.357-2.37,6.8-4.832A5.7,5.7,0,0,0,1228.032,191.071Z" transform="translate(-1081.689 -179.9)" fill="#ababab"/><path d="M493.219,182.1h-2.848a.124.124,0,0,0-.11.074l-2.517,8.3a.115.115,0,0,1-.22,0l-2.517-8.3a.1.1,0,0,0-.11-.074H480.21a.119.119,0,0,0-.11.11v21.2a.119.119,0,0,0,.11.11h3.068a.119.119,0,0,0,.11-.11V187.3a.114.114,0,0,1,.22-.037l2.535,8.36.184.588a.1.1,0,0,0,.11.073h2.352a.124.124,0,0,0,.11-.073l.184-.588,2.535-8.36a.113.113,0,0,1,.22.037v16.113a.119.119,0,0,0,.11.11h3.068a.119.119,0,0,0,.11-.11v-21.2a.119.119,0,0,0-.11-.11Z" transform="translate(-480.1 -181.696)" fill="#ababab"/><path d="M975.352,182.1a.124.124,0,0,0-.11.074l-2.517,8.3a.115.115,0,0,1-.22,0l-2.517-8.3a.1.1,0,0,0-.11-.074H965.21a.119.119,0,0,0-.11.11v21.2a.119.119,0,0,0,.11.11h3.068a.119.119,0,0,0,.11-.11V187.3a.114.114,0,0,1,.22-.037l2.536,8.36.184.588a.1.1,0,0,0,.11.073h2.352a.124.124,0,0,0,.11-.073l.184-.588,2.536-8.36a.113.113,0,0,1,.221.037v16.113a.119.119,0,0,0,.11.11h3.068a.119.119,0,0,0,.11-.11v-21.2a.119.119,0,0,0-.11-.11Z" transform="translate(-875.99 -181.696)" fill="#ababab"/><path d="M740.607,182.1h-14.5a.119.119,0,0,0-.11.11v2.646a.119.119,0,0,0,.11.11h5.6v18.447a.118.118,0,0,0,.11.11h3.068a.118.118,0,0,0,.11-.11V184.966h5.6a.119.119,0,0,0,.11-.11V182.21A.106.106,0,0,0,740.607,182.1Z" transform="translate(-680.82 -181.696)" fill="#ababab"/><path d="M846.846,203.2h2.793a.118.118,0,0,0,.11-.147l-5.769-21.276a.1.1,0,0,0-.11-.073h-4.005a.124.124,0,0,0-.11.073l-5.769,21.276a.118.118,0,0,0,.11.147h2.793a.124.124,0,0,0,.11-.074l1.672-6.192a.1.1,0,0,1,.11-.073h6.173a.124.124,0,0,1,.11.073l1.672,6.192A.151.151,0,0,0,846.846,203.2Zm-7.331-9.37,2.242-8.286a.115.115,0,0,1,.22,0l2.242,8.286a.118.118,0,0,1-.11.147h-4.483A.118.118,0,0,1,839.515,193.826Z" transform="translate(-768.961 -181.369)" fill="#ababab"/><path d="M1106.045,203.2h2.793a.118.118,0,0,0,.11-.147l-5.769-21.276a.1.1,0,0,0-.11-.073h-4.005a.124.124,0,0,0-.11.073l-5.769,21.276a.118.118,0,0,0,.11.147h2.793a.124.124,0,0,0,.11-.074l1.672-6.192a.1.1,0,0,1,.11-.073h6.174a.124.124,0,0,1,.11.073l1.672,6.192A.124.124,0,0,0,1106.045,203.2Zm-7.331-9.37,2.241-8.286a.115.115,0,0,1,.22,0l2.241,8.286a.118.118,0,0,1-.11.147h-4.483A.118.118,0,0,1,1098.715,193.826Z" transform="translate(-980.538 -181.369)" fill="#ababab"/><path d="M615.089,200.463v-6.578a.119.119,0,0,1,.11-.11h8.176a.119.119,0,0,0,.11-.11v-2.646a.119.119,0,0,0-.11-.11H615.2a.119.119,0,0,1-.11-.11v-5.622a.119.119,0,0,1,.11-.11h9.3a.119.119,0,0,0,.11-.11V182.31a.119.119,0,0,0-.11-.11H611.91a.118.118,0,0,0-.11.11v21.184a.119.119,0,0,0,.11.11h12.972a.119.119,0,0,0,.11-.11V200.7a.119.119,0,0,0-.11-.11h-9.7A.122.122,0,0,1,615.089,200.463Z" transform="translate(-587.602 -181.777)" fill="#ababab"/><path d="M1355,203.421l-10.62-10.969a.112.112,0,0,1,0-.147l9.554-9.922a.106.106,0,0,0-.073-.184h-3.914a.1.1,0,0,0-.073.037l-8.1,8.415a.106.106,0,0,1-.184-.073V182.31a.118.118,0,0,0-.11-.11h-3.068a.119.119,0,0,0-.11.11v21.2a.119.119,0,0,0,.11.11h3.068a.119.119,0,0,0,.11-.11v-9.334c0-.092.129-.147.184-.074l9.187,9.481a.14.14,0,0,0,.073.037h3.913C1355.02,203.6,1355.075,203.476,1355,203.421Z" transform="translate(-1180.621 -181.777)" fill="#ababab"/></g><g transform="translate(120 120)"><path d="M283.475,120,264.9,133.78l3.454-8.121Z" transform="translate(-238.277 -120)" fill="#ababab" stroke="#ababab" stroke-linecap="round" stroke-linejoin="round" stroke-width="1"/><g transform="translate(0.386)"><path d="M132.8,120l18.41,13.909-3.289-8.25Z" transform="translate(-130.834 -120)" fill="#8f8f8f" stroke="#8f8f8f" stroke-linecap="round" stroke-linejoin="round" stroke-width="1"/><path d="M307.642,293.9l-4.942,7.57,10.583,2.921,3.032-10.326Z" transform="translate(-269.518 -261.949)" fill="#8f8f8f" stroke="#8f8f8f" stroke-linecap="round" stroke-linejoin="round" stroke-width="1"/><path d="M122.1,294.065l3.013,10.326,10.565-2.921-4.924-7.57Z" transform="translate(-122.1 -261.949)" fill="#8f8f8f" stroke="#8f8f8f" stroke-linecap="round" stroke-linejoin="round" stroke-width="1"/><path d="M179.84,195.976l-2.94,4.446,10.473.478-.349-11.3Z" transform="translate(-166.831 -176.812)" fill="#8f8f8f" stroke="#8f8f8f" stroke-linecap="round" stroke-linejoin="round" stroke-width="1"/><path d="M272.433,195.4l-7.294-6.5-.239,11.428,10.473-.478Z" transform="translate(-238.663 -176.241)" fill="#8f8f8f" stroke="#8f8f8f" stroke-linecap="round" stroke-linejoin="round" stroke-width="1"/><path d="M196,302.531l6.339-3.068-5.457-4.263Z" transform="translate(-182.422 -263.01)" fill="#8f8f8f" stroke="#8f8f8f" stroke-linecap="round" stroke-linejoin="round" stroke-width="1"/><path d="M268.3,299.463l6.32,3.068-.864-7.331Z" transform="translate(-241.438 -263.01)" fill="#8f8f8f" stroke="#8f8f8f" stroke-linecap="round" stroke-linejoin="round" stroke-width="1"/></g><g transform="translate(13.964 36.453)"><path d="M274.62,321.468,268.3,318.4l.514,4.116-.055,1.745Z" transform="translate(-255.016 -318.4)" fill="#b2cfd4" stroke="#b2cfd4" stroke-linecap="round" stroke-linejoin="round" stroke-width="1"/><path d="M196,321.468l5.879,2.793-.037-1.745.5-4.116Z" transform="translate(-196 -318.4)" fill="#b2cfd4" stroke="#b2cfd4" stroke-linecap="round" stroke-linejoin="round" stroke-width="1"/></g><path d="M205.255,265.952,200,264.409l3.711-1.709Z" transform="translate(-185.301 -236.481)" fill="#233447" stroke="#233447" stroke-linecap="round" stroke-linejoin="round" stroke-width="1"/><path d="M270.2,265.952l1.543-3.252,3.73,1.709Z" transform="translate(-242.603 -236.481)" fill="#233447" stroke="#233447" stroke-linecap="round" stroke-linejoin="round" stroke-width="1"/><g transform="translate(9.04 23.61)"><path d="M174.124,301.47l.919-7.57-5.843.165Z" transform="translate(-169.2 -285.559)" fill="#777" stroke="#777" stroke-linecap="round" stroke-linejoin="round" stroke-width="1"/><path d="M297.8,293.9l.9,7.57,4.942-7.4Z" transform="translate(-274.172 -285.559)" fill="#777" stroke="#777" stroke-linecap="round" stroke-linejoin="round" stroke-width="1"/><path d="M275.373,248.5l-10.473.478.974,5.383,1.543-3.252,3.73,1.709Z" transform="translate(-247.317 -248.5)" fill="#777" stroke="#777" stroke-linecap="round" stroke-linejoin="round" stroke-width="1"/><path d="M181.144,252.818l3.711-1.709,1.543,3.252.974-5.383L176.9,248.5Z" transform="translate(-175.485 -248.5)" fill="#777" stroke="#777" stroke-linecap="round" stroke-linejoin="round" stroke-width="1"/></g><g transform="translate(10.454 23.61)"><path d="M176.9,248.5l4.391,8.58-.147-4.263Z" transform="translate(-176.9 -248.5)" fill="#8f8f8f" stroke="#8f8f8f" stroke-linecap="round" stroke-linejoin="round" stroke-width="1"/><path d="M298.165,252.818,298,257.08l4.391-8.58Z" transform="translate(-275.75 -248.5)" fill="#8f8f8f" stroke="#8f8f8f" stroke-linecap="round" stroke-linejoin="round" stroke-width="1"/><path d="M229.574,251.1l-.974,5.383,1.231,6.357.276-8.378Z" transform="translate(-219.101 -250.622)" fill="#8f8f8f" stroke="#8f8f8f" stroke-linecap="round" stroke-linejoin="round" stroke-width="1"/><path d="M262.614,251.1l-.514,3.344.257,8.4,1.231-6.357Z" transform="translate(-246.446 -250.622)" fill="#8f8f8f" stroke="#8f8f8f" stroke-linecap="round" stroke-linejoin="round" stroke-width="1"/></g><path d="M264.731,273.543,263.5,279.9l.882.625,5.457-4.263L270,272Z" transform="translate(-237.134 -244.073)" fill="#ababab" stroke="#ababab" stroke-linecap="round" stroke-linejoin="round" stroke-width="1"/><path d="M200,272l.147,4.263,5.457,4.263.882-.625-1.231-6.357Z" transform="translate(-185.301 -244.073)" fill="#ababab" stroke="#ababab" stroke-linecap="round" stroke-linejoin="round" stroke-width="1"/><path d="M209.743,337.893l.055-1.745-.478-.4H202.3l-.459.4.037,1.745L196,335.1l2.058,1.69,4.171,2.885h7.147l4.189-2.885,2.039-1.69Z" transform="translate(-182.036 -295.579)" fill="#99b2b7" stroke="#99b2b7" stroke-linecap="round" stroke-linejoin="round" stroke-width="1"/><path d="M235.241,315.625l-.882-.625h-5.181l-.882.625-.5,4.116.459-.4h7.019l.478.4Z" transform="translate(-207.994 -279.172)" fill="#161616" stroke="#161616" stroke-linecap="round" stroke-linejoin="round" stroke-width="1"/><g transform="translate(0)"><path d="M287.041,134.68l1.562-7.607L286.251,120,268.3,133.321l6.908,5.843,9.756,2.848,2.15-2.517-.937-.68,1.488-1.36-1.139-.882,1.488-1.139Z" transform="translate(-241.052 -120)" stroke="#0e505a" stroke-linecap="round" stroke-linejoin="round" stroke-width="1" fill="url(#a)"/><path d="M120,127.074l1.58,7.607-1.011.753,1.507,1.139-1.139.882,1.488,1.36-.937.68,2.15,2.517,9.756-2.848,6.908-5.843L122.352,120Z" transform="translate(-120 -120)" stroke="#0e505a" stroke-linecap="round" stroke-linejoin="round" stroke-width="1" fill="url(#a)"/></g><path d="M309.208,227.148l-9.756-2.848,2.94,4.446L298,237.327l5.806-.074h8.672Z" transform="translate(-265.296 -205.137)" fill="#ababab" stroke="#ababab" stroke-linecap="round" stroke-linejoin="round" stroke-width="1"/><path d="M135.108,224.3l-9.756,2.848L122.1,237.253h8.654l5.806.074-4.391-8.58Z" transform="translate(-121.714 -205.137)" fill="#ababab" stroke="#ababab" stroke-linecap="round" stroke-linejoin="round" stroke-width="1"/><path d="M224.25,169.228l.625-10.767L227.7,150.8H215.1l2.829,7.662.625,10.767.239,3.381.018,8.36h5.181l.018-8.36Z" transform="translate(-197.627 -145.141)" fill="#bbb" stroke="#bbb" stroke-linecap="round" stroke-linejoin="round" stroke-width="1"/></g></g></svg>