<svg xmlns="http://www.w3.org/2000/svg" xmlns:xlink="http://www.w3.org/1999/xlink" width="241.58" height="44.1" viewBox="0 0 241.58 44.1"><defs><linearGradient id="a" x1="0.825" y1="0.022" x2="-0.085" y2="1.361" gradientUnits="objectBoundingBox"><stop offset="0" stop-color="#8f8f8f"/><stop offset="1" stop-color="#0e505a"/></linearGradient><clipPath id="b"><ellipse cx="22.571" cy="22.05" rx="22.571" ry="22.05" transform="translate(0 0)" fill="none"/></clipPath><linearGradient id="c" x1="0.733" y1="-0.975" x2="0.405" y2="1.223" xlink:href="#a"/><linearGradient id="d" x1="0.628" y1="-0.436" x2="0.309" y2="1.7" xlink:href="#a"/></defs><g transform="translate(-106.49 -109.609)"><ellipse cx="22.571" cy="22.05" rx="22.571" ry="22.05" transform="translate(106.49 109.609)" fill="url(#a)"/><path d="M287.58,352.661h0v.013l0-.013Z" transform="translate(-167.628 -226.205)" fill="#fff"/><g transform="translate(106.49 109.609)" clip-path="url(#b)"><path d="M141.487,173.911l-7.07,16.9-3.741-8.626,3.411-8.142h-1.843l-2.778,6.771-2.751-6.771H124.9l3.41,8.142-3.713,8.626-7.1-16.9-3.564-8.2,3.67-8.626,7.069,16.9h2.091l-8.279-19.078h-1.706l-4.1,9.363-4.126-9.363h-1.678L98.63,173.988h2.063l7.1-16.9,3.713,8.626-3.411,8.142h1.815l2.75-6.771,2.782,6.829,8.252,19.078h1.677l4.126-9.431,4.1,9.431H135.3l8.279-19.078Z" transform="translate(-98.479 -151.674)" fill="#ababab" opacity="0.2"/><path d="M231.512,389.992a7.309,7.309,0,0,1-1.649.188,7.484,7.484,0,0,1-7.53-7.274,13.19,13.19,0,0,1,.406-2.463l-6.088-2.533a15.048,15.048,0,0,0-.962,5.305c0,7.454,6.542,13.5,14.172,13.5a14.065,14.065,0,0,0,5.122-.958Z" transform="translate(-207.292 -359.327)" fill="url(#c)"/><path d="M340.991,248.44a14.041,14.041,0,0,0-5.751,1.222l3.429,5.689a7.268,7.268,0,0,1,2.325-.379c3.485,0,7.18,2.855,7.538,6.368l-9.913.042,15.454,6.4a13.516,13.516,0,0,0,1.072-5.731C355.142,254.595,348.622,248.44,340.991,248.44Z" transform="translate(-318.42 -238.767)" fill="url(#d)"/><path d="M287.58,352.661h0v.012l0-.013Z" transform="translate(-274.118 -335.814)" fill="#fff"/><path d="M231.512,368.495a7.308,7.308,0,0,1-1.649.187,7.486,7.486,0,0,1-7.53-7.276,13.173,13.173,0,0,1,.406-2.462l-6.088-2.533a15.049,15.049,0,0,0-.962,5.306c0,7.454,6.542,13.5,14.172,13.5a14.065,14.065,0,0,0,5.122-.958Z" transform="translate(-207.292 -339.306)" fill="#ababab"/><path d="M340.991,227a14.041,14.041,0,0,0-5.751,1.222l3.429,5.689a7.268,7.268,0,0,1,2.325-.379c3.485,0,7.18,2.855,7.538,6.368l-9.917.039,15.454,6.4a13.525,13.525,0,0,0,1.072-5.734C355.142,233.151,348.622,227,340.991,227Z" transform="translate(-318.42 -218.802)" fill="#ababab"/></g><path d="M967.175,324.379V312.814l-4.5,8.61h-1.845l-4.5-8.61v11.565H952.93V306.91h3.641l5.166,9.939,5.215-9.939h3.616v17.469Z" transform="translate(-793.103 -179.797)" fill="#ababab"/><path d="M1201.265,379.162a6.407,6.407,0,0,0,.812.184,4.451,4.451,0,0,0,.664.061,1.415,1.415,0,0,0,.591-.123,1.268,1.268,0,0,0,.492-.431,4.222,4.222,0,0,0,.443-.849q.221-.542.467-1.353l-5.093-12.891h3.4l3.493,10.038,3.1-10.038h3.1l-5.412,15.45a4.621,4.621,0,0,1-1.6,2.214,4.484,4.484,0,0,1-2.8.863,5.357,5.357,0,0,1-.8-.061,5.124,5.124,0,0,1-.849-.209Z" transform="translate(-1018.696 -232.267)" fill="#ababab"/><path d="M1403.769,321.4v2.977H1391.64V306.91h11.909v2.977h-8.514v4.207h7.355v2.755h-7.355V321.4Z" transform="translate(-1194.226 -179.797)" fill="#ababab"/><path d="M1566.963,328.182a14.706,14.706,0,0,1-1.624.591,6.822,6.822,0,0,1-2.017.3,4.692,4.692,0,0,1-1.292-.172,2.83,2.83,0,0,1-1.058-.554,2.7,2.7,0,0,1-.724-.984,3.548,3.548,0,0,1-.27-1.464v-7.4h-1.7v-2.536h1.7V311.77h3.3v4.184h2.705v2.534h-2.706v6.3a1.174,1.174,0,0,0,.356.972,1.361,1.361,0,0,0,.873.283,3.029,3.029,0,0,0,1.008-.172q.492-.171.787-.3Z" transform="translate(-1346.661 -184.277)" fill="#ababab"/><path d="M1702.584,318.751h-3.3v-7.235a3.663,3.663,0,0,0-.563-2.253,1.907,1.907,0,0,0-1.6-.724,2.52,2.52,0,0,0-.935.2,3.66,3.66,0,0,0-.935.554,4.73,4.73,0,0,0-.812.851,3.355,3.355,0,0,0-.542,1.082v7.528h-3.3V300.79h3.3v7.454a4.969,4.969,0,0,1,1.931-1.931,5.455,5.455,0,0,1,2.694-.677,4.242,4.242,0,0,1,2.042.431,3.251,3.251,0,0,1,1.23,1.144,4.713,4.713,0,0,1,.615,1.624,10.043,10.043,0,0,1,.172,1.87Z" transform="translate(-1467.511 -174.16)" fill="#ababab"/><path d="M1875.022,374.358a7.157,7.157,0,0,1-2.8-.529,6.326,6.326,0,0,1-3.506-3.555,6.787,6.787,0,0,1-.483-2.534,7.174,7.174,0,0,1,.468-2.6,6.329,6.329,0,0,1,1.354-2.14,6.458,6.458,0,0,1,2.153-1.464,7.2,7.2,0,0,1,2.848-.541,6.962,6.962,0,0,1,2.817.542,6.487,6.487,0,0,1,2.115,1.448,6.178,6.178,0,0,1,1.328,2.116,7.044,7.044,0,0,1,.455,2.509q0,.322-.012.615a2.517,2.517,0,0,1-.061.492h-9.968a3.819,3.819,0,0,0,.369,1.353,3.313,3.313,0,0,0,1.82,1.648,3.472,3.472,0,0,0,1.23.221,3.8,3.8,0,0,0,1.857-.483,2.559,2.559,0,0,0,1.193-1.267l2.829.787a5.753,5.753,0,0,1-2.276,2.423A7.1,7.1,0,0,1,1875.022,374.358Zm3.346-7.774a3.436,3.436,0,0,0-1.07-2.325,3.252,3.252,0,0,0-2.3-.873,3.285,3.285,0,0,0-1.242.233,3.25,3.25,0,0,0-1.021.652,3.381,3.381,0,0,0-.724,1.009,3.546,3.546,0,0,0-.332,1.3Z" transform="translate(-1629.82 -229.611)" fill="#ababab"/><path d="M2072.2,364.647a6.512,6.512,0,0,0-2.681.578,3.382,3.382,0,0,0-1.7,1.661v7.8h-3.3V361.793h3.025v2.754a5.873,5.873,0,0,1,.812-1.193,6.262,6.262,0,0,1,1.009-.922,4.692,4.692,0,0,1,1.094-.6,3.029,3.029,0,0,1,1.07-.209h.4a1.338,1.338,0,0,1,.258.025Z" transform="translate(-1809.501 -230.177)" fill="#ababab"/><path d="M2175.108,306.959h3.125l1.968,5.782,1.968-5.782h3.149l-2.977,7.946,2.215,5.585,4.945-13.58h3.69l-7.109,17.469h-2.854l-3.026-7.331-3.027,7.331h-2.854l-7.06-17.467h3.641l4.969,13.58,2.165-5.585Z" transform="translate(-1902.53 -179.797)" fill="#ababab"/><path d="M2489.011,374.358a4.89,4.89,0,0,1-1.747-.307,4.194,4.194,0,0,1-1.4-.861,4.009,4.009,0,0,1-.922-1.292,3.909,3.909,0,0,1-.333-1.624,3.574,3.574,0,0,1,.4-1.685,3.864,3.864,0,0,1,1.135-1.312,5.619,5.619,0,0,1,1.734-.849,7.574,7.574,0,0,1,2.215-.307,9.549,9.549,0,0,1,1.685.147,6.876,6.876,0,0,1,1.464.418v-.738a2.589,2.589,0,0,0-.724-1.968,3.009,3.009,0,0,0-2.153-.689,5.7,5.7,0,0,0-2.016.369,9.385,9.385,0,0,0-2.021,1.081l-1.009-2.092a9.52,9.52,0,0,1,5.365-1.649,6.275,6.275,0,0,1,4.317,1.368,5.007,5.007,0,0,1,1.538,3.949v4.01a1.158,1.158,0,0,0,.184.738.808.808,0,0,0,.6.246v2.806a7.356,7.356,0,0,1-1.448.172,2.2,2.2,0,0,1-1.439-.418,1.8,1.8,0,0,1-.628-1.107l-.074-.714a5.708,5.708,0,0,1-2.093,1.722A6.005,6.005,0,0,1,2489.011,374.358Zm.935-2.414a4.3,4.3,0,0,0,1.587-.3,2.887,2.887,0,0,0,1.168-.787,1.185,1.185,0,0,0,.541-.935v-1.47a8.082,8.082,0,0,0-1.279-.356,6.91,6.91,0,0,0-1.329-.135,3.528,3.528,0,0,0-2.092.578,1.733,1.733,0,0,0-.812,1.464,1.761,1.761,0,0,0,.64,1.39,2.327,2.327,0,0,0,1.579.554Z" transform="translate(-2193.277 -229.611)" fill="#ababab"/><path d="M2673.85,300.79h3.3v13.826a1.627,1.627,0,0,0,.344,1.107,1.237,1.237,0,0,0,.984.394,2.467,2.467,0,0,0,.652-.1,4.4,4.4,0,0,0,.677-.246l.443,2.509a6.356,6.356,0,0,1-1.55.492,8.475,8.475,0,0,1-1.6.172,3.3,3.3,0,0,1-2.4-.824,3.129,3.129,0,0,1-.851-2.347Z" transform="translate(-2364.502 -174.164)" fill="#ababab"/><path d="M2773.82,300.79h3.3v13.826a1.628,1.628,0,0,0,.344,1.107,1.238,1.238,0,0,0,.984.394,2.466,2.466,0,0,0,.652-.1,4.38,4.38,0,0,0,.677-.246l.443,2.509a6.36,6.36,0,0,1-1.55.492,8.482,8.482,0,0,1-1.6.172,3.3,3.3,0,0,1-2.4-.824,3.13,3.13,0,0,1-.851-2.347Z" transform="translate(-2456.428 -174.164)" fill="#ababab"/><path d="M2870.789,374.376a7.157,7.157,0,0,1-2.8-.529,6.326,6.326,0,0,1-3.5-3.553,6.787,6.787,0,0,1-.483-2.534,7.171,7.171,0,0,1,.467-2.6,6.331,6.331,0,0,1,1.354-2.14,6.461,6.461,0,0,1,2.153-1.464,7.177,7.177,0,0,1,2.841-.542,6.96,6.96,0,0,1,2.816.542,6.486,6.486,0,0,1,2.115,1.448,6.18,6.18,0,0,1,1.329,2.116,7.052,7.052,0,0,1,.455,2.509q0,.322-.012.615a2.584,2.584,0,0,1-.061.492h-9.964a3.824,3.824,0,0,0,.37,1.353,3.312,3.312,0,0,0,1.82,1.648,3.473,3.473,0,0,0,1.23.221,3.8,3.8,0,0,0,1.857-.483,2.557,2.557,0,0,0,1.194-1.267l2.829.787a5.757,5.757,0,0,1-2.276,2.423A7.094,7.094,0,0,1,2870.789,374.376Zm3.348-7.772a3.434,3.434,0,0,0-1.07-2.325,3.252,3.252,0,0,0-2.3-.873,3.285,3.285,0,0,0-1.243.233,3.245,3.245,0,0,0-1.021.652,3.373,3.373,0,0,0-.724,1.009,3.539,3.539,0,0,0-.333,1.3Z" transform="translate(-2539.349 -229.629)" fill="#ababab"/><path d="M3055.833,328.182a14.7,14.7,0,0,1-1.624.591,6.824,6.824,0,0,1-2.018.3,4.689,4.689,0,0,1-1.291-.172,2.83,2.83,0,0,1-1.058-.554,2.693,2.693,0,0,1-.724-.984,3.542,3.542,0,0,1-.271-1.464v-7.4h-1.7v-2.536h1.7V311.77h3.3v4.184h2.706v2.534h-2.71v6.3a1.175,1.175,0,0,0,.356.972,1.361,1.361,0,0,0,.873.283,3.029,3.029,0,0,0,1.008-.171q.492-.171.787-.3Z" transform="translate(-2707.763 -184.277)" fill="#ababab"/></g></svg>