<svg xmlns="http://www.w3.org/2000/svg" xmlns:xlink="http://www.w3.org/1999/xlink" width="241.58" height="44.001" viewBox="0 0 241.58 44.001"><defs><linearGradient id="a" x1="0.895" y1="0.041" x2="0.117" y2="0.841" gradientUnits="objectBoundingBox"><stop offset="0" stop-color="#8f8f8f"/><stop offset="1" stop-color="#0e505a"/></linearGradient></defs><g transform="translate(-95 -132.614)"><path d="M1.459,6.566H6.577L13.2,5.061,18.922,0l4.817,5.061,6.323,1.505h6.022v11.38l-1.506,8.491-1.505,5.419-5.721,5.42-8.43,4.817-7.828-4.817L4.47,31.857,2.964,26.438,1.014,17.946,1.3,10.735Z" transform="translate(95 132.614)" fill="url(#a)"/><path d="M101.782,45.34a1.581,1.581,0,0,1,1.96,0c6.154,4.839,13.185,4.8,15.84,4.785h.365a1.588,1.588,0,0,1,1.141.485,1.636,1.636,0,0,1,.459,1.165,138.253,138.253,0,0,1-1.1,17.667c-.645,4.233-1.62,7.164-3.118,9.412a16.8,16.8,0,0,1-5.69,5.044c-.749.455-1.52.9-2.33,1.363-1.672.961-3.509,2.016-5.66,3.469a1.58,1.58,0,0,1-1.773,0c-2.148-1.451-3.982-2.5-5.651-3.464-.812-.467-1.585-.911-2.337-1.368a16.762,16.762,0,0,1-5.682-5.045C86.712,76.6,85.739,73.672,85.1,69.44A138.811,138.811,0,0,1,84,51.775a1.637,1.637,0,0,1,.459-1.165,1.588,1.588,0,0,1,1.141-.485h.362C88.595,50.14,95.627,50.18,101.782,45.34ZM87.23,53.372a126.311,126.311,0,0,0,1.029,15.574c.607,4,1.476,6.4,2.6,8.09a13.634,13.634,0,0,0,4.674,4.075c.64.389,1.354.8,2.133,1.248,1.487.856,3.208,1.846,5.1,3.078,1.893-1.235,3.617-2.226,5.107-3.083.776-.446,1.488-.856,2.127-1.244a13.673,13.673,0,0,0,4.682-4.076c1.125-1.689,2-4.09,2.606-8.089a125.76,125.76,0,0,0,1.033-15.573,27.492,27.492,0,0,1-15.555-4.734A27.474,27.474,0,0,1,87.23,53.372Z" transform="translate(11 87.614)" fill="#ababab" fill-rule="evenodd"/><text transform="translate(139.58 165.284)" fill="#ababab" font-size="27" font-family="SegoeUI-Bold, Segoe UI" font-weight="700" letter-spacing="0.1em"><tspan x="0" y="0">TRUST</tspan><tspan y="0" fill="#0e505a"> </tspan><tspan y="0" font-family="SegoeUI-Light, Segoe UI" font-weight="300">WALLET</tspan></text></g></svg>